<svg xmlns="http://www.w3.org/2000/svg" viewBox="0 0 1600 900" fill="none">
<defs>
<radialGradient id="hubGlow" cx="50%" cy="50%" r="50%">
<stop offset="0%" stop-color="#2d9abf" stop-opacity="0.16"/>
<stop offset="100%" stop-color="#2d9abf" stop-opacity="0"/>
</radialGradient>
</defs>
<circle cx="1052.1" cy="390.9" r="128.5" fill="url(#hubGlow)"/>
<circle cx="718.2" cy="435.5" r="122.4" fill="url(#hubGlow)"/>
<circle cx="653.7" cy="547" r="184.9" fill="url(#hubGlow)"/>
<g stroke="#2080a0" stroke-width="1" stroke-opacity="0.05">
<line x1="40" y1="0" x2="40" y2="900"/>
<line x1="80" y1="0" x2="80" y2="900"/>
<line x1="120" y1="0" x2="120" y2="900"/>
<line x1="160" y1="0" x2="160" y2="900"/>
<line x1="200" y1="0" x2="200" y2="900"/>
<line x1="240" y1="0" x2="240" y2="900"/>
<line x1="280" y1="0" x2="280" y2="900"/>
<line x1="320" y1="0" x2="320" y2="900"/>
<line x1="360" y1="0" x2="360" y2="900"/>
<line x1="400" y1="0" x2="400" y2="900"/>
<line x1="440" y1="0" x2="440" y2="900"/>
<line x1="480" y1="0" x2="480" y2="900"/>
<line x1="520" y1="0" x2="520" y2="900"/>
<line x1="560" y1="0" x2="560" y2="900"/>
<line x1="600" y1="0" x2="600" y2="900"/>
<line x1="640" y1="0" x2="640" y2="900"/>
<line x1="680" y1="0" x2="680" y2="900"/>
<line x1="720" y1="0" x2="720" y2="900"/>
<line x1="760" y1="0" x2="760" y2="900"/>
<line x1="600" y1="0" x2="600" y2="900"/>
<line x1="840" y1="0" x2="840" y2="900"/>
<line x1="880" y1="0" x2="880" y2="900"/>
<line x1="920" y1="0" x2="920" y2="900"/>
<line x1="960" y1="0" x2="960" y2="900"/>
<line x1="1000" y1="0" x2="1000" y2="900"/>
<line x1="1040" y1="0" x2="1040" y2="900"/>
<line x1="1080" y1="0" x2="1080" y2="900"/>
<line x1="1120" y1="0" x2="1120" y2="900"/>
<line x1="1160" y1="0" x2="1160" y2="900"/>
<line x1="1200" y1="0" x2="1200" y2="900"/>
<line x1="1240" y1="0" x2="1240" y2="900"/>
<line x1="1280" y1="0" x2="1280" y2="900"/>
<line x1="1320" y1="0" x2="1320" y2="900"/>
<line x1="1360" y1="0" x2="1360" y2="900"/>
<line x1="1400" y1="0" x2="1400" y2="900"/>
<line x1="1440" y1="0" x2="1440" y2="900"/>
<line x1="1480" y1="0" x2="1480" y2="900"/>
<line x1="1520" y1="0" x2="1520" y2="900"/>
<line x1="1560" y1="0" x2="1560" y2="900"/>
<line x1="0" y1="40" x2="1600" y2="40"/>
<line x1="0" y1="80" x2="1600" y2="80"/>
<line x1="0" y1="120" x2="1600" y2="120"/>
<line x1="0" y1="160" x2="1600" y2="160"/>
<line x1="0" y1="200" x2="1600" y2="200"/>
<line x1="0" y1="240" x2="1600" y2="240"/>
<line x1="0" y1="280" x2="1600" y2="280"/>
<line x1="0" y1="320" x2="1600" y2="320"/>
<line x1="0" y1="360" x2="1600" y2="360"/>
<line x1="0" y1="400" x2="1600" y2="400"/>
<line x1="0" y1="440" x2="1600" y2="440"/>
<line x1="0" y1="480" x2="1600" y2="480"/>
<line x1="0" y1="520" x2="1600" y2="520"/>
<line x1="0" y1="560" x2="1600" y2="560"/>
<line x1="0" y1="600" x2="1600" y2="600"/>
<line x1="0" y1="640" x2="1600" y2="640"/>
<line x1="0" y1="680" x2="1600" y2="680"/>
<line x1="0" y1="720" x2="1600" y2="720"/>
<line x1="0" y1="760" x2="1600" y2="760"/>
<line x1="0" y1="600" x2="1600" y2="600"/>
<line x1="0" y1="840" x2="1600" y2="840"/>
<line x1="0" y1="880" x2="1600" y2="880"/>
</g>
<rect x="0" y="90" width="1600" height="170" fill="#1b6b8a" fill-opacity="0.035"/>
<line x1="0" y1="90" x2="1600" y2="90" stroke="#2d9abf" stroke-width="1" stroke-opacity="0.13"/>
<rect x="0" y="260" width="1600" height="170" fill="#1b6b8a" fill-opacity="0.015"/>
<line x1="0" y1="260" x2="1600" y2="260" stroke="#2d9abf" stroke-width="1" stroke-opacity="0.13"/>
<rect x="0" y="430" width="1600" height="170" fill="#1b6b8a" fill-opacity="0.035"/>
<line x1="0" y1="430" x2="1600" y2="430" stroke="#2d9abf" stroke-width="1" stroke-opacity="0.13"/>
<rect x="0" y="600" width="1600" height="170" fill="#1b6b8a" fill-opacity="0.015"/>
<line x1="0" y1="600" x2="1600" y2="600" stroke="#2d9abf" stroke-width="1" stroke-opacity="0.13"/>
<g stroke-width="1">
<line x1="140" y1="128.4" x2="207.7" y2="140.6" stroke="#2d9abf" stroke-opacity="0.1"/>
<line x1="140" y1="128.4" x2="255.3" y2="154.2" stroke="#1b6b8a" stroke-opacity="0.09"/>
<line x1="207.7" y1="140.6" x2="255.3" y2="154.2" stroke="#1b6b8a" stroke-opacity="0.2"/>
<line x1="255.3" y1="154.2" x2="810.7" y2="215.1" stroke="#2d9abf" stroke-opacity="0.1"/>
<line x1="255.3" y1="154.2" x2="812.7" y2="163.3" stroke="#1b6b8a" stroke-opacity="0.09"/>
<line x1="810.7" y1="215.1" x2="812.7" y2="163.3" stroke="#2080a0" stroke-opacity="0.1"/>
<line x1="810.7" y1="215.1" x2="813.1" y2="166.9" stroke="#1b6b8a" stroke-opacity="0.09"/>
<line x1="812.7" y1="163.3" x2="813.1" y2="166.9" stroke="#1b6b8a" stroke-opacity="0.1"/>
<line x1="813.1" y1="166.9" x2="987.8" y2="185.1" stroke="#2080a0" stroke-opacity="0.2"/>
<line x1="813.1" y1="166.9" x2="1002.1" y2="199.4" stroke="#1b6b8a" stroke-opacity="0.09"/>
<line x1="987.8" y1="185.1" x2="1002.1" y2="199.4" stroke="#2d9abf" stroke-opacity="0.1"/>
<line x1="1002.1" y1="199.4" x2="1114.7" y2="188.5" stroke="#1b6b8a" stroke-opacity="0.1"/>
<line x1="1002.1" y1="199.4" x2="1206" y2="189.2" stroke="#1b6b8a" stroke-opacity="0.09"/>
<line x1="1114.7" y1="188.5" x2="1206" y2="189.2" stroke="#2080a0" stroke-opacity="0.1"/>
<line x1="43.8" y1="323.4" x2="75" y2="387.3" stroke="#2d9abf" stroke-opacity="0.1"/>
<line x1="43.8" y1="323.4" x2="84.1" y2="381.8" stroke="#1b6b8a" stroke-opacity="0.09"/>
<line x1="75" y1="387.3" x2="84.1" y2="381.8" stroke="#2d9abf" stroke-opacity="0.1"/>
<line x1="75" y1="387.3" x2="244.6" y2="295.8" stroke="#1b6b8a" stroke-opacity="0.09"/>
<line x1="84.1" y1="381.8" x2="244.6" y2="295.8" stroke="#2d9abf" stroke-opacity="0.2"/>
<line x1="244.6" y1="295.8" x2="380.6" y2="291" stroke="#1b6b8a" stroke-opacity="0.2"/>
<line x1="244.6" y1="295.8" x2="510.7" y2="342.9" stroke="#1b6b8a" stroke-opacity="0.09"/>
<line x1="380.6" y1="291" x2="510.7" y2="342.9" stroke="#1b6b8a" stroke-opacity="0.2"/>
<line x1="510.7" y1="342.9" x2="716.8" y2="392.1" stroke="#2080a0" stroke-opacity="0.1"/>
<line x1="716.8" y1="392.1" x2="731.8" y2="330" stroke="#2d9abf" stroke-opacity="0.2"/>
<line x1="731.8" y1="330" x2="768.9" y2="351.4" stroke="#2d9abf" stroke-opacity="0.2"/>
<line x1="731.8" y1="330" x2="1206.9" y2="342.4" stroke="#1b6b8a" stroke-opacity="0.09"/>
<line x1="768.9" y1="351.4" x2="1206.9" y2="342.4" stroke="#2d9abf" stroke-opacity="0.1"/>
<line x1="1206.9" y1="342.4" x2="1343.4" y2="350.8" stroke="#2080a0" stroke-opacity="0.2"/>
<line x1="70.6" y1="563.2" x2="373.9" y2="491.9" stroke="#2080a0" stroke-opacity="0.2"/>
<line x1="373.9" y1="491.9" x2="525.6" y2="537.7" stroke="#1b6b8a" stroke-opacity="0.2"/>
<line x1="373.9" y1="491.9" x2="621.7" y2="532.6" stroke="#1b6b8a" stroke-opacity="0.09"/>
<line x1="525.6" y1="537.7" x2="621.7" y2="532.6" stroke="#1b6b8a" stroke-opacity="0.2"/>
<line x1="621.7" y1="532.6" x2="783.7" y2="480.5" stroke="#2d9abf" stroke-opacity="0.2"/>
<line x1="783.7" y1="480.5" x2="1001.4" y2="486" stroke="#2d9abf" stroke-opacity="0.1"/>
<line x1="1001.4" y1="486" x2="1062.4" y2="549" stroke="#2080a0" stroke-opacity="0.2"/>
<line x1="1062.4" y1="549" x2="1065" y2="474" stroke="#2080a0" stroke-opacity="0.2"/>
<line x1="1065" y1="474" x2="1274.5" y2="511.7" stroke="#2d9abf" stroke-opacity="0.1"/>
<line x1="1274.5" y1="511.7" x2="1517.3" y2="499" stroke="#2d9abf" stroke-opacity="0.2"/>
<line x1="128.8" y1="658.3" x2="138.1" y2="718.8" stroke="#1b6b8a" stroke-opacity="0.1"/>
<line x1="128.8" y1="658.3" x2="291" y2="687.1" stroke="#1b6b8a" stroke-opacity="0.09"/>
<line x1="138.1" y1="718.8" x2="291" y2="687.1" stroke="#2080a0" stroke-opacity="0.1"/>
<line x1="291" y1="687.1" x2="379" y2="690.2" stroke="#1b6b8a" stroke-opacity="0.2"/>
<line x1="379" y1="690.2" x2="860.6" y2="659.3" stroke="#1b6b8a" stroke-opacity="0.1"/>
<line x1="379" y1="690.2" x2="1015.6" y2="676.9" stroke="#1b6b8a" stroke-opacity="0.09"/>
<line x1="860.6" y1="659.3" x2="1015.6" y2="676.9" stroke="#1b6b8a" stroke-opacity="0.1"/>
<line x1="1015.6" y1="676.9" x2="1097.2" y2="738.1" stroke="#2080a0" stroke-opacity="0.1"/>
<line x1="1097.2" y1="738.1" x2="1148.3" y2="726.1" stroke="#1b6b8a" stroke-opacity="0.1"/>
<line x1="1097.2" y1="738.1" x2="1259.4" y2="722.3" stroke="#1b6b8a" stroke-opacity="0.09"/>
<line x1="1148.3" y1="726.1" x2="1259.4" y2="722.3" stroke="#2d9abf" stroke-opacity="0.2"/>
<line x1="1259.4" y1="722.3" x2="1392.1" y2="663.2" stroke="#2080a0" stroke-opacity="0.2"/>
<line x1="1392.1" y1="663.2" x2="1547.3" y2="687.8" stroke="#2d9abf" stroke-opacity="0.2"/>
</g>
<line x1="110.1" y1="229.1" x2="110.1" y2="311.9" stroke="#2d9abf" stroke-width="1" stroke-opacity="0.16" stroke-dasharray="4 4"/>
<line x1="1451.5" y1="233.8" x2="1451.5" y2="290" stroke="#2d9abf" stroke-width="1" stroke-opacity="0.16" stroke-dasharray="4 4"/>
<line x1="1166.9" y1="229.8" x2="1166.9" y2="289.9" stroke="#2d9abf" stroke-width="1" stroke-opacity="0.16" stroke-dasharray="4 4"/>
<line x1="937.4" y1="386.2" x2="937.4" y2="479.9" stroke="#2d9abf" stroke-width="1" stroke-opacity="0.16" stroke-dasharray="4 4"/>
<line x1="1220.4" y1="381.5" x2="1220.4" y2="460.6" stroke="#2d9abf" stroke-width="1" stroke-opacity="0.16" stroke-dasharray="4 4"/>
<line x1="736" y1="383.6" x2="736" y2="470.8" stroke="#2d9abf" stroke-width="1" stroke-opacity="0.16" stroke-dasharray="4 4"/>
<line x1="701.7" y1="548.6" x2="701.7" y2="639.4" stroke="#2d9abf" stroke-width="1" stroke-opacity="0.16" stroke-dasharray="4 4"/>
<line x1="1348.6" y1="564.1" x2="1348.6" y2="643.9" stroke="#2d9abf" stroke-width="1" stroke-opacity="0.16" stroke-dasharray="4 4"/>
<line x1="415" y1="562.6" x2="415" y2="634.5" stroke="#2d9abf" stroke-width="1" stroke-opacity="0.16" stroke-dasharray="4 4"/>
<line x1="930" y1="549.9" x2="930" y2="645.9" stroke="#2d9abf" stroke-width="1" stroke-opacity="0.16" stroke-dasharray="4 4"/>
<rect x="107.6" y="257.5" width="5" height="5" rx="1" fill="#2d9abf" fill-opacity="0.3"/>
<rect x="1449" y="257.5" width="5" height="5" rx="1" fill="#2d9abf" fill-opacity="0.3"/>
<rect x="1164.4" y="257.5" width="5" height="5" rx="1" fill="#2d9abf" fill-opacity="0.3"/>
<rect x="934.9" y="427.5" width="5" height="5" rx="1" fill="#2d9abf" fill-opacity="0.3"/>
<rect x="1217.9" y="427.5" width="5" height="5" rx="1" fill="#2d9abf" fill-opacity="0.3"/>
<rect x="733.5" y="427.5" width="5" height="5" rx="1" fill="#2d9abf" fill-opacity="0.3"/>
<rect x="699.2" y="597.5" width="5" height="5" rx="1" fill="#2d9abf" fill-opacity="0.3"/>
<rect x="1346.1" y="597.5" width="5" height="5" rx="1" fill="#2d9abf" fill-opacity="0.3"/>
<rect x="412.5" y="597.5" width="5" height="5" rx="1" fill="#2d9abf" fill-opacity="0.3"/>
<rect x="927.5" y="597.5" width="5" height="5" rx="1" fill="#2d9abf" fill-opacity="0.3"/>
<circle cx="140" cy="128.4" r="2.6" fill="#2d9abf" fill-opacity="0.2"/>
<circle cx="207.7" cy="140.6" r="2.2" fill="#2d9abf" fill-opacity="0.2"/>
<circle cx="255.3" cy="154.2" r="1.8" fill="#2d9abf" fill-opacity="0.2"/>
<circle cx="810.7" cy="215.1" r="2.9" fill="#2d9abf" fill-opacity="0.3"/>
<circle cx="812.7" cy="163.3" r="2.7" fill="#2d9abf" fill-opacity="0.2"/>
<circle cx="813.1" cy="166.9" r="1.7" fill="#2d9abf" fill-opacity="0.3"/>
<circle cx="987.8" cy="185.1" r="2.3" fill="#2d9abf" fill-opacity="0.2"/>
<circle cx="1002.1" cy="199.4" r="2.8" fill="#2d9abf" fill-opacity="0.3"/>
<circle cx="1114.7" cy="188.5" r="2.1" fill="#2d9abf" fill-opacity="0.3"/>
<circle cx="1206" cy="189.2" r="2.1" fill="#2d9abf" fill-opacity="0.2"/>
<circle cx="43.8" cy="323.4" r="2.5" fill="#2d9abf" fill-opacity="0.3"/>
<circle cx="75" cy="387.3" r="3" fill="#2d9abf" fill-opacity="0.3"/>
<circle cx="84.1" cy="381.8" r="2.8" fill="#2d9abf" fill-opacity="0.2"/>
<circle cx="244.6" cy="295.8" r="2.4" fill="#2d9abf" fill-opacity="0.3"/>
<circle cx="380.6" cy="291" r="1.7" fill="#2d9abf" fill-opacity="0.2"/>
<circle cx="510.7" cy="342.9" r="2.8" fill="#2d9abf" fill-opacity="0.3"/>
<circle cx="716.8" cy="392.1" r="2.4" fill="#2d9abf" fill-opacity="0.2"/>
<circle cx="731.8" cy="330" r="3" fill="#2d9abf" fill-opacity="0.3"/>
<circle cx="768.9" cy="351.4" r="2.7" fill="#2d9abf" fill-opacity="0.2"/>
<circle cx="1206.9" cy="342.4" r="2.8" fill="#2d9abf" fill-opacity="0.3"/>
<circle cx="1343.4" cy="350.8" r="2.5" fill="#2d9abf" fill-opacity="0.2"/>
<circle cx="70.6" cy="563.2" r="1.7" fill="#2d9abf" fill-opacity="0.3"/>
<circle cx="373.9" cy="491.9" r="2.4" fill="#2d9abf" fill-opacity="0.3"/>
<circle cx="525.6" cy="537.7" r="2.5" fill="#2d9abf" fill-opacity="0.3"/>
<circle cx="621.7" cy="532.6" r="1.9" fill="#2d9abf" fill-opacity="0.3"/>
<circle cx="783.7" cy="480.5" r="2.2" fill="#2d9abf" fill-opacity="0.3"/>
<circle cx="1001.4" cy="486" r="2.2" fill="#2d9abf" fill-opacity="0.3"/>
<circle cx="1062.4" cy="549" r="1.7" fill="#2d9abf" fill-opacity="0.3"/>
<circle cx="1065" cy="474" r="2.6" fill="#2d9abf" fill-opacity="0.3"/>
<circle cx="1274.5" cy="511.7" r="2.9" fill="#2d9abf" fill-opacity="0.2"/>
<circle cx="1517.3" cy="499" r="2.1" fill="#2d9abf" fill-opacity="0.2"/>
<circle cx="128.8" cy="658.3" r="2.8" fill="#2d9abf" fill-opacity="0.3"/>
<circle cx="138.1" cy="718.8" r="1.8" fill="#2d9abf" fill-opacity="0.3"/>
<circle cx="291" cy="687.1" r="2.4" fill="#2d9abf" fill-opacity="0.2"/>
<circle cx="379" cy="690.2" r="2.8" fill="#2d9abf" fill-opacity="0.3"/>
<circle cx="860.6" cy="659.3" r="1.7" fill="#2d9abf" fill-opacity="0.2"/>
<circle cx="1015.6" cy="676.9" r="2.6" fill="#2d9abf" fill-opacity="0.2"/>
<circle cx="1097.2" cy="738.1" r="2.6" fill="#2d9abf" fill-opacity="0.2"/>
<circle cx="1148.3" cy="726.1" r="2.2" fill="#2d9abf" fill-opacity="0.2"/>
<circle cx="1259.4" cy="722.3" r="2" fill="#2d9abf" fill-opacity="0.3"/>
<circle cx="1392.1" cy="663.2" r="2.1" fill="#2d9abf" fill-opacity="0.3"/>
<circle cx="1547.3" cy="687.8" r="2.9" fill="#2d9abf" fill-opacity="0.3"/>
<circle cx="1148.3" cy="726.1" r="3.2" fill="#f5a623" fill-opacity="0.34"/>
<circle cx="1148.3" cy="726.1" r="7.5" fill="none" stroke="#f5a623" stroke-width="1" stroke-opacity="0.18"/>
<circle cx="1517.3" cy="499" r="3.2" fill="#f5a623" fill-opacity="0.34"/>
<circle cx="1517.3" cy="499" r="7.5" fill="none" stroke="#f5a623" stroke-width="1" stroke-opacity="0.18"/>
<circle cx="1062.4" cy="549" r="3.2" fill="#f5a623" fill-opacity="0.34"/>
<circle cx="1062.4" cy="549" r="7.5" fill="none" stroke="#f5a623" stroke-width="1" stroke-opacity="0.18"/>
<circle cx="380.6" cy="291" r="3.2" fill="#f5a623" fill-opacity="0.34"/>
<circle cx="380.6" cy="291" r="7.5" fill="none" stroke="#f5a623" stroke-width="1" stroke-opacity="0.18"/>
<circle cx="1002.1" cy="199.4" r="3.2" fill="#f5a623" fill-opacity="0.34"/>
<circle cx="1002.1" cy="199.4" r="7.5" fill="none" stroke="#f5a623" stroke-width="1" stroke-opacity="0.18"/>
</svg>
